<svg xmlns="http://www.w3.org/2000/svg" xmlns:sketch="http://www.bohemiancoding.com/sketch/ns" width="26px" height="26px"  viewBox="0 0 32 32"><path d="M10 27c0-2.734-2.266-5-5-5-2.781 0-5 2.266-5 5 0 2.781 2.219 5 5 5 2.734 0 5-2.219 5-5zm22 4.328c0-17.297-14.031-31.328-31.328-31.328-.375 0-.672.297-.672.672v4.656c0 .375.297.672.672.672 14 0 25.328 11.328 25.328 25.328 0 .375.297.672.672.672h4.656c.375 0 .672-.297.672-.672zm-10 0c0-11.766-9.563-21.328-21.328-21.328-.375 0-.672.297-.672.672v4.656c0 .375.297.672.672.672 8.469 0 15.328 6.859 15.328 15.328 0 .375.297.672.672.672h4.656c.375 0 .672-.297.672-.672z" fill="#999" sketch:type="MSShapeGroup"/></svg>